<svg width="320" height="320" viewBox="0 0 320 320" xmlns="http://www.w3.org/2000/svg" role="img" aria-label="CADD — Consejo Argentino de Diplomacia Deportiva">
  <defs>
    <path id="cadd-top" d="M 160 160 m -110 0 a 110 110 0 0 1 220 0"></path>
    <path id="cadd-bottom" d="M 160 160 m -110 0 a 110 110 0 0 0 220 0"></path>
  </defs>

  
  <circle cx="160" cy="160" r="156" fill="#0b1f38"></circle>
  <circle cx="160" cy="160" r="156" fill="none" stroke="#c2a15a" stroke-width="2"></circle>
  <circle cx="160" cy="160" r="128" fill="none" stroke="#c2a15a" stroke-width="1" opacity="0.55"></circle>

  
  <g stroke="#c2a15a" stroke-width="1.4" opacity="0.7">
    
    <line x1="300.0" y1="160.0" x2="308.0" y2="160.0"></line><line x1="299.2" y1="174.6" x2="307.2" y2="175.5"></line><line x1="296.9" y1="189.1" x2="304.8" y2="190.8"></line><line x1="293.1" y1="203.3" x2="300.8" y2="205.7"></line><line x1="287.9" y1="216.9" x2="295.2" y2="220.2"></line><line x1="281.2" y1="230.0" x2="288.2" y2="234.0"></line><line x1="273.3" y1="242.3" x2="279.7" y2="247.0"></line><line x1="264.0" y1="253.7" x2="270.0" y2="259.0"></line><line x1="253.7" y1="264.0" x2="259.0" y2="270.0"></line><line x1="242.3" y1="273.3" x2="247.0" y2="279.7"></line><line x1="230.0" y1="281.2" x2="234.0" y2="288.2"></line><line x1="216.9" y1="287.9" x2="220.2" y2="295.2"></line><line x1="203.3" y1="293.1" x2="205.7" y2="300.8"></line><line x1="189.1" y1="296.9" x2="190.8" y2="304.8"></line><line x1="174.6" y1="299.2" x2="175.5" y2="307.2"></line><line x1="160.0" y1="300.0" x2="160.0" y2="308.0"></line><line x1="145.4" y1="299.2" x2="144.5" y2="307.2"></line><line x1="130.9" y1="296.9" x2="129.2" y2="304.8"></line><line x1="116.7" y1="293.1" x2="114.3" y2="300.8"></line><line x1="103.1" y1="287.9" x2="99.8" y2="295.2"></line><line x1="90.0" y1="281.2" x2="86.0" y2="288.2"></line><line x1="77.7" y1="273.3" x2="73.0" y2="279.7"></line><line x1="66.3" y1="264.0" x2="61.0" y2="270.0"></line><line x1="56.0" y1="253.7" x2="50.0" y2="259.0"></line><line x1="46.7" y1="242.3" x2="40.3" y2="247.0"></line><line x1="38.8" y1="230.0" x2="31.8" y2="234.0"></line><line x1="32.1" y1="216.9" x2="24.8" y2="220.2"></line><line x1="26.9" y1="203.3" x2="19.2" y2="205.7"></line><line x1="23.1" y1="189.1" x2="15.2" y2="190.8"></line><line x1="20.8" y1="174.6" x2="12.8" y2="175.5"></line><line x1="20.0" y1="160.0" x2="12.0" y2="160.0"></line><line x1="20.8" y1="145.4" x2="12.8" y2="144.5"></line><line x1="23.1" y1="130.9" x2="15.2" y2="129.2"></line><line x1="26.9" y1="116.7" x2="19.2" y2="114.3"></line><line x1="32.1" y1="103.1" x2="24.8" y2="99.8"></line><line x1="38.8" y1="90.0" x2="31.8" y2="86.0"></line><line x1="46.7" y1="77.7" x2="40.3" y2="73.0"></line><line x1="56.0" y1="66.3" x2="50.0" y2="61.0"></line><line x1="66.3" y1="56.0" x2="61.0" y2="50.0"></line><line x1="77.7" y1="46.7" x2="73.0" y2="40.3"></line><line x1="90.0" y1="38.8" x2="86.0" y2="31.8"></line><line x1="103.1" y1="32.1" x2="99.8" y2="24.8"></line><line x1="116.7" y1="26.9" x2="114.3" y2="19.2"></line><line x1="130.9" y1="23.1" x2="129.2" y2="15.2"></line><line x1="145.4" y1="20.8" x2="144.5" y2="12.8"></line><line x1="160.0" y1="20.0" x2="160.0" y2="12.0"></line><line x1="174.6" y1="20.8" x2="175.5" y2="12.8"></line><line x1="189.1" y1="23.1" x2="190.8" y2="15.2"></line><line x1="203.3" y1="26.9" x2="205.7" y2="19.2"></line><line x1="216.9" y1="32.1" x2="220.2" y2="24.8"></line><line x1="230.0" y1="38.8" x2="234.0" y2="31.8"></line><line x1="242.3" y1="46.7" x2="247.0" y2="40.3"></line><line x1="253.7" y1="56.0" x2="259.0" y2="50.0"></line><line x1="264.0" y1="66.3" x2="270.0" y2="61.0"></line><line x1="273.3" y1="77.7" x2="279.7" y2="73.0"></line><line x1="281.2" y1="90.0" x2="288.2" y2="86.0"></line><line x1="287.9" y1="103.1" x2="295.2" y2="99.8"></line><line x1="293.1" y1="116.7" x2="300.8" y2="114.3"></line><line x1="296.9" y1="130.9" x2="304.8" y2="129.2"></line><line x1="299.2" y1="145.4" x2="307.2" y2="144.5"></line>
  </g>

  
  <g fill="#e6d3a3" font-family="&#39;Spectral&#39;, Georgia, serif" font-size="14" font-weight="500" letter-spacing="2">
    <text text-anchor="middle">
      <textPath href="#cadd-top" startOffset="50%">CONSEJO ARGENTINO DE</textPath>
    </text>
    <text text-anchor="middle">
      <textPath href="#cadd-bottom" startOffset="50%">DIPLOMACIA DEPORTIVA</textPath>
    </text>
  </g>

  
  
  
  <text x="160" y="188" text-anchor="middle" font-family="&#39;Spectral&#39;, Georgia, serif" font-weight="600" font-size="84" fill="#f7f4ee" letter-spacing="-2">CADD</text>

  
  <g transform="translate(160 222)" fill="#c2a15a">
    <polygon points="15.00,0.00 5.98,-0.54 5.98,0.54"></polygon><polygon points="9.81,1.95 5.97,0.64 5.76,1.69"></polygon><polygon points="13.86,5.74 5.73,1.79 5.31,2.79"></polygon><polygon points="8.31,5.56 5.27,2.87 4.67,3.77"></polygon><polygon points="10.61,10.61 4.61,3.84 3.84,4.61"></polygon><polygon points="5.56,8.31 3.77,4.67 2.87,5.27"></polygon><polygon points="5.74,13.86 2.79,5.31 1.79,5.73"></polygon><polygon points="1.95,9.81 1.69,5.76 0.64,5.97"></polygon><polygon points="0.00,15.00 0.54,5.98 -0.54,5.98"></polygon><polygon points="-1.95,9.81 -0.64,5.97 -1.69,5.76"></polygon><polygon points="-5.74,13.86 -1.79,5.73 -2.79,5.31"></polygon><polygon points="-5.56,8.31 -2.87,5.27 -3.77,4.67"></polygon><polygon points="-10.61,10.61 -3.84,4.61 -4.61,3.84"></polygon><polygon points="-8.31,5.56 -4.67,3.77 -5.27,2.87"></polygon><polygon points="-13.86,5.74 -5.31,2.79 -5.73,1.79"></polygon><polygon points="-9.81,1.95 -5.76,1.69 -5.97,0.64"></polygon><polygon points="-15.00,0.00 -5.98,0.54 -5.98,-0.54"></polygon><polygon points="-9.81,-1.95 -5.97,-0.64 -5.76,-1.69"></polygon><polygon points="-13.86,-5.74 -5.73,-1.79 -5.31,-2.79"></polygon><polygon points="-8.31,-5.56 -5.27,-2.87 -4.67,-3.77"></polygon><polygon points="-10.61,-10.61 -4.61,-3.84 -3.84,-4.61"></polygon><polygon points="-5.56,-8.31 -3.77,-4.67 -2.87,-5.27"></polygon><polygon points="-5.74,-13.86 -2.79,-5.31 -1.79,-5.73"></polygon><polygon points="-1.95,-9.81 -1.69,-5.76 -0.64,-5.97"></polygon><polygon points="-0.00,-15.00 -0.54,-5.98 0.54,-5.98"></polygon><polygon points="1.95,-9.81 0.64,-5.97 1.69,-5.76"></polygon><polygon points="5.74,-13.86 1.79,-5.73 2.79,-5.31"></polygon><polygon points="5.56,-8.31 2.87,-5.27 3.77,-4.67"></polygon><polygon points="10.61,-10.61 3.84,-4.61 4.61,-3.84"></polygon><polygon points="8.31,-5.56 4.67,-3.77 5.27,-2.87"></polygon><polygon points="13.86,-5.74 5.31,-2.79 5.73,-1.79"></polygon><polygon points="9.81,-1.95 5.76,-1.69 5.97,-0.64"></polygon>
    <circle r="6" fill="#0b1f38" stroke="#c2a15a" stroke-width="1.5"></circle>
  </g>

</svg>